<svg width="26" height="20" viewBox="0 0 26 26" fill="none" xmlns="http://www.w3.org/2000/svg">
<g id="Group 58">
<path id="Vector" d="M13 18.3333C14.4145 18.3333 15.7711 17.7714 16.7713 16.7712C17.7715 15.771 18.3334 14.4145 18.3334 13C18.3334 11.5855 17.7715 10.2289 16.7713 9.22875C15.7711 8.22856 14.4145 7.66666 13 7.66666C11.5855 7.66666 10.229 8.22856 9.22878 9.22875C8.22859 10.2289 7.66669 11.5855 7.66669 13C7.66669 14.4145 8.22859 15.771 9.22878 16.7712C10.229 17.7714 11.5855 18.3333 13 18.3333Z" stroke="url(#paint0_linear_2_696)" stroke-width="2" stroke-linecap="round" stroke-linejoin="round"/>
<path id="Vector_2" d="M13 1V2.33333" stroke="url(#paint1_linear_2_696)" stroke-width="2" stroke-linecap="round" stroke-linejoin="round"/>
<path id="Vector_3" d="M13 23.6667V25" stroke="url(#paint2_linear_2_696)" stroke-width="2" stroke-linecap="round" stroke-linejoin="round"/>
<path id="Vector_4" d="M1 13H2.33333" stroke="url(#paint3_linear_2_696)" stroke-width="2" stroke-linecap="round" stroke-linejoin="round"/>
<path id="Vector_5" d="M23.6667 13H25" stroke="url(#paint4_linear_2_696)" stroke-width="2" stroke-linecap="round" stroke-linejoin="round"/>
<path id="Vector_6" d="M21.4853 4.51465L20.5427 5.45731" stroke="url(#paint5_linear_2_696)" stroke-width="2" stroke-linecap="round" stroke-linejoin="round"/>
<path id="Vector_7" d="M5.45731 20.5426L4.51465 21.4853" stroke="url(#paint6_linear_2_696)" stroke-width="2" stroke-linecap="round" stroke-linejoin="round"/>
<path id="Vector_8" d="M4.51465 4.51465L5.45731 5.45731" stroke="url(#paint7_linear_2_696)" stroke-width="2" stroke-linecap="round" stroke-linejoin="round"/>
<path id="Vector_9" d="M20.5427 20.5426L21.4853 21.4853" stroke="url(#paint8_linear_2_696)" stroke-width="2" stroke-linecap="round" stroke-linejoin="round"/>
</g>
<defs>
<linearGradient id="paint0_linear_2_696" x1="13" y1="7.66666" x2="13" y2="18.3333" gradientUnits="userSpaceOnUse">
<stop stop-color="#ED0E98"/>
<stop offset="1" stop-color="#FE5A2D"/>
</linearGradient>
<linearGradient id="paint1_linear_2_696" x1="13.5" y1="1" x2="13.5" y2="2.33333" gradientUnits="userSpaceOnUse">
<stop stop-color="#ED0E98"/>
<stop offset="1" stop-color="#FE5A2D"/>
</linearGradient>
<linearGradient id="paint2_linear_2_696" x1="13.5" y1="23.6667" x2="13.5" y2="25" gradientUnits="userSpaceOnUse">
<stop stop-color="#ED0E98"/>
<stop offset="1" stop-color="#FE5A2D"/>
</linearGradient>
<linearGradient id="paint3_linear_2_696" x1="1.66667" y1="13" x2="1.66667" y2="14" gradientUnits="userSpaceOnUse">
<stop stop-color="#ED0E98"/>
<stop offset="1" stop-color="#FE5A2D"/>
</linearGradient>
<linearGradient id="paint4_linear_2_696" x1="24.3334" y1="13" x2="24.3334" y2="14" gradientUnits="userSpaceOnUse">
<stop stop-color="#ED0E98"/>
<stop offset="1" stop-color="#FE5A2D"/>
</linearGradient>
<linearGradient id="paint5_linear_2_696" x1="21.014" y1="4.51465" x2="21.014" y2="5.45731" gradientUnits="userSpaceOnUse">
<stop stop-color="#ED0E98"/>
<stop offset="1" stop-color="#FE5A2D"/>
</linearGradient>
<linearGradient id="paint6_linear_2_696" x1="4.98598" y1="20.5426" x2="4.98598" y2="21.4853" gradientUnits="userSpaceOnUse">
<stop stop-color="#ED0E98"/>
<stop offset="1" stop-color="#FE5A2D"/>
</linearGradient>
<linearGradient id="paint7_linear_2_696" x1="4.98598" y1="4.51465" x2="4.98598" y2="5.45731" gradientUnits="userSpaceOnUse">
<stop stop-color="#ED0E98"/>
<stop offset="1" stop-color="#FE5A2D"/>
</linearGradient>
<linearGradient id="paint8_linear_2_696" x1="21.014" y1="20.5426" x2="21.014" y2="21.4853" gradientUnits="userSpaceOnUse">
<stop stop-color="#ED0E98"/>
<stop offset="1" stop-color="#FE5A2D"/>
</linearGradient>
</defs>
</svg>
